<?xml version="1.0" encoding="UTF-8" standalone="no"?>
<!DOCTYPE svg PUBLIC "-//W3C//DTD SVG 1.1//EN"
 "http://www.w3.org/Graphics/SVG/1.1/DTD/svg11.dtd">
<!-- Generated by graphviz version 2.43.0 (0)
 -->
<!-- Title: BurningStatusHighLevel Pages: 1 -->
<svg width="576pt" height="25pt"
 viewBox="0.00 0.00 576.00 25.25" xmlns="http://www.w3.org/2000/svg" xmlns:xlink="http://www.w3.org/1999/xlink">
<g id="graph0" class="graph" transform="scale(0.31 0.31) rotate(0) translate(4 77)">
<title>BurningStatusHighLevel</title>
<polygon fill="white" stroke="transparent" points="-4,4 -4,-77 1843.92,-77 1843.92,4 -4,4"/>
<!-- A -->
<g id="node1" class="node">
<title>A</title>
<polygon fill="#ff6b6b" stroke="black" points="167,-37 0,-37 0,-1 167,-1 167,-37"/>
<text text-anchor="middle" x="83.5" y="-15.3" font-family="Times,serif" font-size="14.00">Player Casts Fireball</text>
</g>
<!-- B -->
<g id="node2" class="node">
<title>B</title>
<polygon fill="none" stroke="black" points="338,-38 204,-38 204,0 338,0 338,-38"/>
<text text-anchor="middle" x="271" y="-22.8" font-family="Times,serif" font-size="14.00">ActionCore</text>
<text text-anchor="middle" x="271" y="-7.8" font-family="Times,serif" font-size="14.00">(Execute Action)</text>
</g>
<!-- A&#45;&gt;B -->
<g id="edge1" class="edge">
<title>A&#45;&gt;B</title>
<path fill="none" stroke="black" d="M167.21,-19C176.03,-19 184.97,-19 193.71,-19"/>
<polygon fill="black" stroke="black" points="193.86,-22.5 203.86,-19 193.86,-15.5 193.86,-22.5"/>
</g>
<!-- C -->
<g id="node3" class="node">
<title>C</title>
<polygon fill="none" stroke="black" points="532,-38 375,-38 375,0 532,0 532,-38"/>
<text text-anchor="middle" x="453.5" y="-22.8" font-family="Times,serif" font-size="14.00">CombatCore</text>
<text text-anchor="middle" x="453.5" y="-7.8" font-family="Times,serif" font-size="14.00">(Calculate Damage)</text>
</g>
<!-- B&#45;&gt;C -->
<g id="edge2" class="edge">
<title>B&#45;&gt;C</title>
<path fill="none" stroke="black" d="M338.19,-19C346.81,-19 355.76,-19 364.67,-19"/>
<polygon fill="black" stroke="black" points="364.7,-22.5 374.7,-19 364.7,-15.5 364.7,-22.5"/>
</g>
<!-- D -->
<g id="node4" class="node">
<title>D</title>
<polygon fill="#4ecdc4" stroke="black" points="699,-38 569,-38 569,0 699,0 699,-38"/>
<text text-anchor="middle" x="634" y="-22.8" font-family="Times,serif" font-size="14.00">StatusCore</text>
<text text-anchor="middle" x="634" y="-7.8" font-family="Times,serif" font-size="14.00">(Apply Burning)</text>
</g>
<!-- C&#45;&gt;D -->
<g id="edge3" class="edge">
<title>C&#45;&gt;D</title>
<path fill="none" stroke="black" d="M532.01,-19C540.87,-19 549.89,-19 558.7,-19"/>
<polygon fill="black" stroke="black" points="558.94,-22.5 568.94,-19 558.94,-15.5 558.94,-22.5"/>
</g>
<!-- E -->
<g id="node5" class="node">
<title>E</title>
<polygon fill="#45b7d1" stroke="black" points="873,-38 736,-38 736,0 873,0 873,-38"/>
<text text-anchor="middle" x="804.5" y="-22.8" font-family="Times,serif" font-size="14.00">Combat Tick</text>
<text text-anchor="middle" x="804.5" y="-7.8" font-family="Times,serif" font-size="14.00">(Process Effects)</text>
</g>
<!-- D&#45;&gt;E -->
<g id="edge4" class="edge">
<title>D&#45;&gt;E</title>
<path fill="none" stroke="black" d="M699.18,-19C707.9,-19 716.92,-19 725.84,-19"/>
<polygon fill="black" stroke="black" points="725.85,-22.5 735.85,-19 725.85,-15.5 725.85,-22.5"/>
</g>
<!-- F -->
<g id="node6" class="node">
<title>F</title>
<polygon fill="#96ceb4" stroke="black" points="1047,-73 910,-73 910,-35 1047,-35 1047,-73"/>
<text text-anchor="middle" x="978.5" y="-57.8" font-family="Times,serif" font-size="14.00">Burning Damage</text>
<text text-anchor="middle" x="978.5" y="-42.8" font-family="Times,serif" font-size="14.00">per Tick</text>
</g>
<!-- E&#45;&gt;F -->
<g id="edge5" class="edge">
<title>E&#45;&gt;F</title>
<path fill="none" stroke="black" d="M873.48,-32.83C882.14,-34.6 891.06,-36.41 899.87,-38.2"/>
<polygon fill="black" stroke="black" points="899.24,-41.65 909.73,-40.21 900.63,-34.79 899.24,-41.65"/>
</g>
<!-- G -->
<g id="node7" class="node">
<title>G</title>
<polygon fill="none" stroke="black" points="1337,-73 1180,-73 1180,-35 1337,-35 1337,-73"/>
<text text-anchor="middle" x="1258.5" y="-57.8" font-family="Times,serif" font-size="14.00">HP Reduced</text>
<text text-anchor="middle" x="1258.5" y="-42.8" font-family="Times,serif" font-size="14.00">(ResourceManager)</text>
</g>
<!-- F&#45;&gt;G -->
<g id="edge6" class="edge">
<title>F&#45;&gt;G</title>
<path fill="none" stroke="black" d="M1047.15,-54C1084.04,-54 1130.13,-54 1169.75,-54"/>
<polygon fill="black" stroke="black" points="1169.94,-57.5 1179.94,-54 1169.94,-50.5 1169.94,-57.5"/>
</g>
<!-- H -->
<g id="node8" class="node">
<title>H</title>
<polygon fill="#feca57" stroke="black" points="1482.46,-37 1374.04,-19 1482.46,-1 1590.88,-19 1482.46,-37"/>
<text text-anchor="middle" x="1482.46" y="-15.3" font-family="Times,serif" font-size="14.00">Effect Expiry?</text>
</g>
<!-- G&#45;&gt;H -->
<g id="edge7" class="edge">
<title>G&#45;&gt;H</title>
<path fill="none" stroke="black" d="M1337.13,-41.76C1362.95,-37.69 1391.43,-33.2 1416.21,-29.29"/>
<polygon fill="black" stroke="black" points="1416.9,-32.72 1426.23,-27.71 1415.81,-25.81 1416.9,-32.72"/>
</g>
<!-- H&#45;&gt;E -->
<g id="edge8" class="edge">
<title>H&#45;&gt;E</title>
<path fill="none" stroke="black" d="M1373.94,-19C1237.15,-19 1004.2,-19 883.37,-19"/>
<polygon fill="black" stroke="black" points="883.1,-15.5 873.1,-19 883.1,-22.5 883.1,-15.5"/>
<text text-anchor="middle" x="1113.5" y="-22.8" font-family="Times,serif" font-size="14.00">No (continue)</text>
</g>
<!-- I -->
<g id="node9" class="node">
<title>I</title>
<polygon fill="none" stroke="black" points="1839.92,-38 1719.92,-38 1719.92,0 1839.92,0 1839.92,-38"/>
<text text-anchor="middle" x="1779.92" y="-22.8" font-family="Times,serif" font-size="14.00">Remove Effect</text>
<text text-anchor="middle" x="1779.92" y="-7.8" font-family="Times,serif" font-size="14.00">(StatusCore)</text>
</g>
<!-- H&#45;&gt;I -->
<g id="edge9" class="edge">
<title>H&#45;&gt;I</title>
<path fill="none" stroke="black" d="M1590.96,-19C1630.46,-19 1674.11,-19 1709.39,-19"/>
<polygon fill="black" stroke="black" points="1709.59,-22.5 1719.59,-19 1709.59,-15.5 1709.59,-22.5"/>
<text text-anchor="middle" x="1655.42" y="-22.8" font-family="Times,serif" font-size="14.00">Yes (remove)</text>
</g>
</g>
</svg>
