<?xml version="1.0" encoding="UTF-8" standalone="no"?>
<!DOCTYPE svg PUBLIC "-//W3C//DTD SVG 1.1//EN"
 "http://www.w3.org/Graphics/SVG/1.1/DTD/svg11.dtd">
<!-- Generated by graphviz version 2.43.0 (0)
 -->
<!-- Title: BurningStatusDetailed Pages: 1 -->
<svg width="148pt" height="576pt"
 viewBox="0.00 0.00 148.36 576.00" xmlns="http://www.w3.org/2000/svg" xmlns:xlink="http://www.w3.org/1999/xlink">
<g id="graph0" class="graph" transform="scale(0.44 0.44) rotate(0) translate(4 1316)">
<title>BurningStatusDetailed</title>
<polygon fill="white" stroke="transparent" points="-4,4 -4,-1316 336,-1316 336,4 -4,4"/>
<g id="clust1" class="cluster">
<title>cluster_action</title>
<polygon fill="none" stroke="black" stroke-dasharray="5,2" points="24,-1077 24,-1304 232,-1304 232,-1077 24,-1077"/>
<text text-anchor="middle" x="128" y="-1288.8" font-family="Times,serif" font-size="14.00">Phase 1: Action Execution</text>
</g>
<g id="clust2" class="cluster">
<title>cluster_damage</title>
<polygon fill="none" stroke="black" stroke-dasharray="5,2" points="32,-831 32,-1058 257,-1058 257,-831 32,-831"/>
<text text-anchor="middle" x="144.5" y="-1042.8" font-family="Times,serif" font-size="14.00">Phase 2: Damage Calculation</text>
</g>
<g id="clust3" class="cluster">
<title>cluster_status</title>
<polygon fill="none" stroke="black" stroke-dasharray="5,2" points="25,-585 25,-812 285,-812 285,-585 25,-585"/>
<text text-anchor="middle" x="155" y="-796.8" font-family="Times,serif" font-size="14.00">Phase 3: Status Effect Application</text>
</g>
<g id="clust4" class="cluster">
<title>cluster_tick</title>
<polygon fill="none" stroke="black" stroke-dasharray="5,2" points="8,-264 8,-566 230,-566 230,-264 8,-264"/>
<text text-anchor="middle" x="119" y="-550.8" font-family="Times,serif" font-size="14.00">Phase 4: Combat Tick</text>
</g>
<g id="clust5" class="cluster">
<title>cluster_expiry</title>
<polygon fill="none" stroke="black" stroke-dasharray="5,2" points="106,-8 106,-245 324,-245 324,-8 106,-8"/>
<text text-anchor="middle" x="215" y="-229.8" font-family="Times,serif" font-size="14.00">Phase 5: Effect Expiry</text>
</g>
<!-- P1 -->
<g id="node1" class="node">
<title>P1</title>
<polygon fill="none" stroke="black" points="219.5,-1273 36.5,-1273 36.5,-1235 219.5,-1235 219.5,-1273"/>
<text text-anchor="middle" x="128" y="-1257.8" font-family="Times,serif" font-size="14.00">Player → ActionCore</text>
<text text-anchor="middle" x="128" y="-1242.8" font-family="Times,serif" font-size="14.00">execute_action(fireball)</text>
</g>
<!-- P2 -->
<g id="node2" class="node">
<title>P2</title>
<polygon fill="none" stroke="black" points="206,-1198 50,-1198 50,-1160 206,-1160 206,-1198"/>
<text text-anchor="middle" x="128" y="-1182.8" font-family="Times,serif" font-size="14.00">ResourceManager</text>
<text text-anchor="middle" x="128" y="-1167.8" font-family="Times,serif" font-size="14.00">consume_resources</text>
</g>
<!-- P1&#45;&gt;P2 -->
<g id="edge1" class="edge">
<title>P1&#45;&gt;P2</title>
<path fill="none" stroke="black" d="M128,-1234.96C128,-1226.88 128,-1217.18 128,-1208.18"/>
<polygon fill="black" stroke="black" points="131.5,-1208.09 128,-1198.09 124.5,-1208.09 131.5,-1208.09"/>
</g>
<!-- P3 -->
<g id="node3" class="node">
<title>P3</title>
<polygon fill="none" stroke="black" points="223.5,-1123 32.5,-1123 32.5,-1085 223.5,-1085 223.5,-1123"/>
<text text-anchor="middle" x="128" y="-1107.8" font-family="Times,serif" font-size="14.00">ElementCore + Mastery</text>
<text text-anchor="middle" x="128" y="-1092.8" font-family="Times,serif" font-size="14.00">get_element_stats</text>
</g>
<!-- P2&#45;&gt;P3 -->
<g id="edge2" class="edge">
<title>P2&#45;&gt;P3</title>
<path fill="none" stroke="black" d="M128,-1159.96C128,-1151.88 128,-1142.18 128,-1133.18"/>
<polygon fill="black" stroke="black" points="131.5,-1133.09 128,-1123.09 124.5,-1133.09 131.5,-1133.09"/>
</g>
<!-- P4 -->
<g id="node4" class="node">
<title>P4</title>
<polygon fill="none" stroke="black" points="199.5,-1027 56.5,-1027 56.5,-989 199.5,-989 199.5,-1027"/>
<text text-anchor="middle" x="128" y="-1011.8" font-family="Times,serif" font-size="14.00">CombatCore</text>
<text text-anchor="middle" x="128" y="-996.8" font-family="Times,serif" font-size="14.00">calculate_damage</text>
</g>
<!-- P3&#45;&gt;P4 -->
<g id="edge3" class="edge">
<title>P3&#45;&gt;P4</title>
<path fill="none" stroke="black" d="M128,-1084.88C128,-1071.35 128,-1052.62 128,-1037.15"/>
<polygon fill="black" stroke="black" points="131.5,-1037.07 128,-1027.07 124.5,-1037.07 131.5,-1037.07"/>
</g>
<!-- P5 -->
<g id="node5" class="node">
<title>P5</title>
<polygon fill="none" stroke="black" points="199.5,-952 56.5,-952 56.5,-914 199.5,-914 199.5,-952"/>
<text text-anchor="middle" x="128" y="-936.8" font-family="Times,serif" font-size="14.00">ActorCore</text>
<text text-anchor="middle" x="128" y="-921.8" font-family="Times,serif" font-size="14.00">get_derived_stats</text>
</g>
<!-- P4&#45;&gt;P5 -->
<g id="edge4" class="edge">
<title>P4&#45;&gt;P5</title>
<path fill="none" stroke="black" d="M128,-988.96C128,-980.88 128,-971.18 128,-962.18"/>
<polygon fill="black" stroke="black" points="131.5,-962.09 128,-952.09 124.5,-962.09 131.5,-962.09"/>
</g>
<!-- P6 -->
<g id="node6" class="node">
<title>P6</title>
<polygon fill="none" stroke="black" points="202.5,-877 53.5,-877 53.5,-839 202.5,-839 202.5,-877"/>
<text text-anchor="middle" x="128" y="-861.8" font-family="Times,serif" font-size="14.00">DamageCalculator</text>
<text text-anchor="middle" x="128" y="-846.8" font-family="Times,serif" font-size="14.00">final_damage</text>
</g>
<!-- P5&#45;&gt;P6 -->
<g id="edge5" class="edge">
<title>P5&#45;&gt;P6</title>
<path fill="none" stroke="black" d="M128,-913.96C128,-905.88 128,-896.18 128,-887.18"/>
<polygon fill="black" stroke="black" points="131.5,-887.09 128,-877.09 124.5,-887.09 131.5,-887.09"/>
</g>
<!-- P7 -->
<g id="node7" class="node">
<title>P7</title>
<polygon fill="none" stroke="black" points="204.5,-781 51.5,-781 51.5,-743 204.5,-743 204.5,-781"/>
<text text-anchor="middle" x="128" y="-765.8" font-family="Times,serif" font-size="14.00">StatusCore</text>
<text text-anchor="middle" x="128" y="-750.8" font-family="Times,serif" font-size="14.00">apply_status_effect</text>
</g>
<!-- P6&#45;&gt;P7 -->
<g id="edge6" class="edge">
<title>P6&#45;&gt;P7</title>
<path fill="none" stroke="black" d="M128,-838.88C128,-825.35 128,-806.62 128,-791.15"/>
<polygon fill="black" stroke="black" points="131.5,-791.07 128,-781.07 124.5,-791.07 131.5,-791.07"/>
</g>
<!-- P8 -->
<g id="node8" class="node">
<title>P8</title>
<polygon fill="none" stroke="black" points="216,-706 40,-706 40,-668 216,-668 216,-706"/>
<text text-anchor="middle" x="128" y="-690.8" font-family="Times,serif" font-size="14.00">Validator + Calculator</text>
<text text-anchor="middle" x="128" y="-675.8" font-family="Times,serif" font-size="14.00">magnitude &amp; duration</text>
</g>
<!-- P7&#45;&gt;P8 -->
<g id="edge7" class="edge">
<title>P7&#45;&gt;P8</title>
<path fill="none" stroke="black" d="M128,-742.96C128,-734.88 128,-725.18 128,-716.18"/>
<polygon fill="black" stroke="black" points="131.5,-716.09 128,-706.09 124.5,-716.09 131.5,-716.09"/>
</g>
<!-- P9 -->
<g id="node9" class="node">
<title>P9</title>
<polygon fill="none" stroke="black" points="212.5,-631 43.5,-631 43.5,-593 212.5,-593 212.5,-631"/>
<text text-anchor="middle" x="128" y="-615.8" font-family="Times,serif" font-size="14.00">StatusEffectManager</text>
<text text-anchor="middle" x="128" y="-600.8" font-family="Times,serif" font-size="14.00">store_effect</text>
</g>
<!-- P8&#45;&gt;P9 -->
<g id="edge8" class="edge">
<title>P8&#45;&gt;P9</title>
<path fill="none" stroke="black" d="M128,-667.96C128,-659.88 128,-650.18 128,-641.18"/>
<polygon fill="black" stroke="black" points="131.5,-641.09 128,-631.09 124.5,-641.09 131.5,-641.09"/>
</g>
<!-- P10 -->
<g id="node10" class="node">
<title>P10</title>
<polygon fill="none" stroke="black" points="218.5,-535 37.5,-535 37.5,-497 218.5,-497 218.5,-535"/>
<text text-anchor="middle" x="128" y="-519.8" font-family="Times,serif" font-size="14.00">StatusProcessor</text>
<text text-anchor="middle" x="128" y="-504.8" font-family="Times,serif" font-size="14.00">process_burning_effect</text>
</g>
<!-- P9&#45;&gt;P10 -->
<g id="edge9" class="edge">
<title>P9&#45;&gt;P10</title>
<path fill="none" stroke="black" d="M128,-592.88C128,-579.35 128,-560.62 128,-545.15"/>
<polygon fill="black" stroke="black" points="131.5,-545.07 128,-535.07 124.5,-545.07 131.5,-545.07"/>
</g>
<!-- P11 -->
<g id="node11" class="node">
<title>P11</title>
<polygon fill="none" stroke="black" points="222,-460 16,-460 16,-422 222,-422 222,-460"/>
<text text-anchor="middle" x="119" y="-444.8" font-family="Times,serif" font-size="14.00">StatusCalculator</text>
<text text-anchor="middle" x="119" y="-429.8" font-family="Times,serif" font-size="14.00">calculate_burning_damage</text>
</g>
<!-- P10&#45;&gt;P11 -->
<g id="edge10" class="edge">
<title>P10&#45;&gt;P11</title>
<path fill="none" stroke="black" d="M125.78,-496.96C124.78,-488.88 123.58,-479.18 122.47,-470.18"/>
<polygon fill="black" stroke="black" points="125.93,-469.59 121.23,-460.09 118.98,-470.44 125.93,-469.59"/>
</g>
<!-- P12 -->
<g id="node12" class="node">
<title>P12</title>
<polygon fill="none" stroke="black" points="212.5,-385 29.5,-385 29.5,-347 212.5,-347 212.5,-385"/>
<text text-anchor="middle" x="121" y="-369.8" font-family="Times,serif" font-size="14.00">CombatCore</text>
<text text-anchor="middle" x="121" y="-354.8" font-family="Times,serif" font-size="14.00">apply_damage_to_actor</text>
</g>
<!-- P11&#45;&gt;P12 -->
<g id="edge11" class="edge">
<title>P11&#45;&gt;P12</title>
<path fill="none" stroke="black" d="M119.49,-421.96C119.72,-413.88 119.98,-404.18 120.23,-395.18"/>
<polygon fill="black" stroke="black" points="123.73,-395.18 120.5,-385.09 116.73,-394.99 123.73,-395.18"/>
</g>
<!-- P13 -->
<g id="node13" class="node">
<title>P13</title>
<polygon fill="none" stroke="black" points="208,-310 62,-310 62,-272 208,-272 208,-310"/>
<text text-anchor="middle" x="135" y="-294.8" font-family="Times,serif" font-size="14.00">ResourceManager</text>
<text text-anchor="middle" x="135" y="-279.8" font-family="Times,serif" font-size="14.00">reduce_hp</text>
</g>
<!-- P12&#45;&gt;P13 -->
<g id="edge12" class="edge">
<title>P12&#45;&gt;P13</title>
<path fill="none" stroke="black" d="M124.46,-346.96C126.01,-338.88 127.87,-329.18 129.6,-320.18"/>
<polygon fill="black" stroke="black" points="133.08,-320.57 131.53,-310.09 126.21,-319.25 133.08,-320.57"/>
</g>
<!-- P14 -->
<g id="node14" class="node">
<title>P14</title>
<polygon fill="none" stroke="black" points="215,-214 113.79,-196 215,-178 316.21,-196 215,-214"/>
<text text-anchor="middle" x="215" y="-192.3" font-family="Times,serif" font-size="14.00">Check expiry</text>
</g>
<!-- P13&#45;&gt;P14 -->
<g id="edge13" class="edge">
<title>P13&#45;&gt;P14</title>
<path fill="none" stroke="black" d="M150.81,-271.63C163.6,-256.75 181.69,-235.72 195.41,-219.78"/>
<polygon fill="black" stroke="black" points="198.26,-221.83 202.13,-211.96 192.95,-217.26 198.26,-221.83"/>
</g>
<!-- P14&#45;&gt;P10 -->
<g id="edge14" class="edge">
<title>P14&#45;&gt;P10</title>
<path fill="none" stroke="black" d="M224.75,-212.46C235.11,-230.39 250,-261.19 250,-290 250,-442 250,-442 250,-442 250,-465.43 233.22,-481.53 212.11,-492.5"/>
<polygon fill="black" stroke="black" points="210.37,-489.45 202.83,-496.9 213.37,-495.78 210.37,-489.45"/>
<text text-anchor="middle" x="260.5" y="-362.3" font-family="Times,serif" font-size="14.00">No</text>
</g>
<!-- P15 -->
<g id="node15" class="node">
<title>P15</title>
<polygon fill="none" stroke="black" points="274,-127 156,-127 156,-91 274,-91 274,-127"/>
<text text-anchor="middle" x="215" y="-105.3" font-family="Times,serif" font-size="14.00">Remove effect</text>
</g>
<!-- P14&#45;&gt;P15 -->
<g id="edge15" class="edge">
<title>P14&#45;&gt;P15</title>
<path fill="none" stroke="black" d="M215,-177.8C215,-166.16 215,-150.55 215,-137.24"/>
<polygon fill="black" stroke="black" points="218.5,-137.18 215,-127.18 211.5,-137.18 218.5,-137.18"/>
<text text-anchor="middle" x="227.5" y="-148.8" font-family="Times,serif" font-size="14.00">Yes</text>
</g>
<!-- P16 -->
<g id="node16" class="node">
<title>P16</title>
<polygon fill="none" stroke="black" points="311.5,-54 118.5,-54 118.5,-16 311.5,-16 311.5,-54"/>
<text text-anchor="middle" x="215" y="-38.8" font-family="Times,serif" font-size="14.00">EventDispatcher</text>
<text text-anchor="middle" x="215" y="-23.8" font-family="Times,serif" font-size="14.00">dispatch_effect_removed</text>
</g>
<!-- P15&#45;&gt;P16 -->
<g id="edge16" class="edge">
<title>P15&#45;&gt;P16</title>
<path fill="none" stroke="black" d="M215,-90.94C215,-82.99 215,-73.31 215,-64.31"/>
<polygon fill="black" stroke="black" points="218.5,-64.2 215,-54.2 211.5,-64.2 218.5,-64.2"/>
</g>
</g>
</svg>
